# xmcd
#
# Track frame offsets:
#	150
#	18114
#	41599
#	56340
#	74158
#	93665
#	110410
#	129577
#	144456
#	162010
#	176730
#	192800
#	208999
#	226136
#	244700
#	262802
#	282810
#
# Disc length: 4038
#
# Revision: 2
# Processed by: cddbd v1.5.1PL0 Copyright (c) Steve Scherf et al.
# Submitted via: VOLTOCDX V1.0.24 
# Normalized: r1:TSWAP
#
DISCID=ee0fc411
DTITLE=Various Artist - Music Maestro Country Hits IV - Disc 1
DYEAR=2004
DGENRE=Karaoke
TTITLE0=Toby Keith - I Love This Bar
TTITLE1=Alan Jackson - Where Were You
TTITLE2=Rascal Flatts - Love You Out Loud
TTITLE3=Joe Nichols - Brokenheartsville
TTITLE4=Shania Twain - I'm Gonna Getcha Good
TTITLE5=Aaron Tippin - I'll Take Love Over Money
TTITLE6=Alan Jackson - Work In Progress
TTITLE7=Eric Heatherly - Last Man Committed
TTITLE8=Faith Hill - Cry
TTITLE9=Lee Greenwood - God Bless The U.s.a.
TTITLE10=Tim McGraw - The Cowboy In Me
TTITLE11=Darryl Worley - I Miss My Friend
TTITLE12=Diamond Rio - Beautiful Mess
TTITLE13=Chris Cagle - Chicks Dig It
TTITLE14=Lonestar - Walkin' In Memphis
TTITLE15=Rodney Atkins - Honestly
TTITLE16=Sara Evans - Backseat Of A Greyhound Bus
EXTD=
EXTT0=
EXTT1=
EXTT2=
EXTT3=
EXTT4=
EXTT5=
EXTT6=
EXTT7=
EXTT8=
EXTT9=
EXTT10=
EXTT11=
EXTT12=
EXTT13=
EXTT14=
EXTT15=
EXTT16=
PLAYORDER=
